<svg width="84" height="22" viewBox="0 0 84 22" fill="none" xmlns="http://www.w3.org/2000/svg">
<path d="M20.025 19.675C19.4583 20.375 18.7667 20.9084 17.95 21.275C17.15 21.6417 16.2667 21.825 15.3 21.825C14 21.825 12.825 21.5417 11.775 20.975C10.725 20.425 9.52499 19.4417 8.17499 18.025C6.59166 17.825 5.17499 17.3167 3.92499 16.5C2.69166 15.6834 1.72499 14.6334 1.02499 13.35C0.341661 12.05 -6.0834e-06 10.6167 -6.0834e-06 9.05005C-6.0834e-06 7.33338 0.408327 5.79172 1.22499 4.42505C2.05833 3.04171 3.19999 1.95838 4.64999 1.17505C6.11666 0.391715 7.75833 4.85182e-05 9.57499 4.85182e-05C11.3917 4.85182e-05 13.025 0.391715 14.475 1.17505C15.925 1.95838 17.0667 3.04171 17.9 4.42505C18.7333 5.79172 19.15 7.33338 19.15 9.05005C19.15 11.0834 18.575 12.8667 17.425 14.4C16.2917 15.9334 14.7833 17 12.9 17.6C13.3167 18.0334 13.7167 18.3417 14.1 18.525C14.5 18.725 14.925 18.825 15.375 18.825C16.4583 18.825 17.4083 18.3917 18.225 17.525L20.025 19.675ZM4.09999 9.05005C4.09999 10.1334 4.33333 11.1 4.79999 11.95C5.28333 12.8 5.94166 13.4667 6.77499 13.95C7.60833 14.4167 8.54166 14.65 9.57499 14.65C10.6083 14.65 11.5417 14.4167 12.375 13.95C13.2083 13.4667 13.8583 12.8 14.325 11.95C14.8083 11.1 15.05 10.1334 15.05 9.05005C15.05 7.96671 14.8083 7.00005 14.325 6.15005C13.8583 5.30005 13.2083 4.64172 12.375 4.17505C11.5417 3.69172 10.6083 3.45005 9.57499 3.45005C8.54166 3.45005 7.60833 3.69172 6.77499 4.17505C5.94166 4.64172 5.28333 5.30005 4.79999 6.15005C4.33333 7.00005 4.09999 7.96671 4.09999 9.05005ZM29.7687 0.300048C31.3187 0.300048 32.6604 0.558381 33.7937 1.07505C34.9437 1.59172 35.8271 2.32505 36.4437 3.27505C37.0604 4.22505 37.3687 5.35005 37.3687 6.65005C37.3687 7.93338 37.0604 9.05838 36.4437 10.025C35.8271 10.975 34.9437 11.7084 33.7937 12.225C32.6604 12.725 31.3187 12.975 29.7687 12.975H26.2437V17.8H22.1937V0.300048H29.7687ZM29.5437 9.67505C30.7604 9.67505 31.6854 9.41672 32.3187 8.90005C32.9521 8.36672 33.2687 7.61672 33.2687 6.65005C33.2687 5.66672 32.9521 4.91672 32.3187 4.40005C31.6854 3.86672 30.7604 3.60005 29.5437 3.60005H26.2437V9.67505H29.5437ZM40.2602 0.300048H44.3102V17.8H40.2602V0.300048ZM56.8383 18.1C55.0549 18.1 53.4383 17.7167 51.9883 16.95C50.5549 16.1667 49.4216 15.0917 48.5883 13.725C47.7716 12.3417 47.3633 10.7834 47.3633 9.05005C47.3633 7.31671 47.7716 5.76671 48.5883 4.40005C49.4216 3.01672 50.5549 1.94172 51.9883 1.17505C53.4383 0.391715 55.0633 4.85182e-05 56.8633 4.85182e-05C58.3799 4.85182e-05 59.7466 0.266715 60.9633 0.800049C62.1966 1.33338 63.2299 2.10005 64.0633 3.10005L61.4633 5.50005C60.2799 4.13338 58.8133 3.45005 57.0633 3.45005C55.9799 3.45005 55.0133 3.69172 54.1633 4.17505C53.3133 4.64172 52.6466 5.30005 52.1633 6.15005C51.6966 7.00005 51.4633 7.96671 51.4633 9.05005C51.4633 10.1334 51.6966 11.1 52.1633 11.95C52.6466 12.8 53.3133 13.4667 54.1633 13.95C55.0133 14.4167 55.9799 14.65 57.0633 14.65C58.8133 14.65 60.2799 13.9584 61.4633 12.575L64.0633 14.975C63.2299 15.9917 62.1966 16.7667 60.9633 17.3C59.7299 17.8334 58.3549 18.1 56.8383 18.1ZM73.1732 10.925L70.8232 13.375V17.8H66.7982V0.300048H70.8232V8.47505L78.5732 0.300048H83.0732L75.8232 8.10005L83.4982 17.8H78.7732L73.1732 10.925Z" fill="#101010"/>
</svg>
